<mxfile host="app.diagrams.net" agent="Mozilla/5.0 (Windows NT 10.0; Win64; x64; rv:132.0) Gecko/20100101 Firefox/132.0" version="24.8.3" pages="2">
  <diagram name="Food Supply Chain Process in Italy" id="0">
    <mxGraphModel dx="1235" dy="769" grid="0" gridSize="10" guides="1" tooltips="1" connect="1" arrows="1" fold="1" page="1" pageScale="1" pageWidth="1169" pageHeight="827" math="0" shadow="0">
      <root>
        <mxCell id="0" />
        <mxCell id="1" parent="0" />
        <mxCell id="2" value="Inizio del Processo" style="ellipse;whiteSpace=wrap;html=1;" parent="1" vertex="1">
          <mxGeometry x="95" y="17" width="80" height="40" as="geometry" />
        </mxCell>
        <mxCell id="3" value="Coltivazione e Raccolta\nAttore: Agricoltore" style="rounded=1;whiteSpace=wrap;html=1;" parent="1" vertex="1">
          <mxGeometry x="55" y="108" width="160" height="60" as="geometry" />
        </mxCell>
        <mxCell id="21" value="Trasporto dai Campi al Trasformatore\nAttore: Fornitore di Logistica" style="rounded=1;whiteSpace=wrap;html=1;" parent="1" vertex="1">
          <mxGeometry x="35" y="210" width="200" height="60" as="geometry" />
        </mxCell>
        <mxCell id="4" value="Trasformazione Alimentare\nAttore: Trasformatore" style="rounded=1;whiteSpace=wrap;html=1;" parent="1" vertex="1">
          <mxGeometry x="45" y="324" width="180" height="60" as="geometry" />
        </mxCell>
        <mxCell id="5" value="Stoccaggio e Gestione dell&#39;Inventario\nAttore: Operatore Magazzino Refrigerato" style="rounded=1;whiteSpace=wrap;html=1;" parent="1" vertex="1">
          <mxGeometry x="283" y="324" width="220" height="60" as="geometry" />
        </mxCell>
        <mxCell id="6" value="Trasporto e Logistica\nAttore: Fornitore di Logistica" style="rounded=1;whiteSpace=wrap;html=1;" parent="1" vertex="1">
          <mxGeometry x="191" y="458" width="180" height="60" as="geometry" />
        </mxCell>
        <mxCell id="7" value="Distribuzione ai Rivenditori\nAttore: Distributore" style="rounded=1;whiteSpace=wrap;html=1;" parent="1" vertex="1">
          <mxGeometry x="192" y="567.5" width="180" height="60" as="geometry" />
        </mxCell>
        <mxCell id="8" value="Vendita al Dettaglio\nAttore: Supermercato/Negozio" style="rounded=1;whiteSpace=wrap;html=1;" parent="1" vertex="1">
          <mxGeometry x="425" y="564.5" width="180" height="60" as="geometry" />
        </mxCell>
        <mxCell id="9" value="Consumo Finale\nAttore: Consumatore" style="rounded=1;whiteSpace=wrap;html=1;" parent="1" vertex="1">
          <mxGeometry x="681" y="564.5" width="180" height="60" as="geometry" />
        </mxCell>
        <mxCell id="10" value="Gestione dei Rifiuti e Riciclaggio\nAttore: Servizio di Gestione dei Rifiuti" style="rounded=1;whiteSpace=wrap;html=1;" parent="1" vertex="1">
          <mxGeometry x="912" y="564.5" width="220" height="60" as="geometry" />
        </mxCell>
        <mxCell id="11" value="Fine del Processo" style="ellipse;whiteSpace=wrap;html=1;" parent="1" vertex="1">
          <mxGeometry x="982" y="708" width="80" height="40" as="geometry" />
        </mxCell>
        <mxCell id="12" parent="1" source="2" target="3" edge="1">
          <mxGeometry relative="1" as="geometry" />
        </mxCell>
        <mxCell id="22" parent="1" source="3" target="21" edge="1">
          <mxGeometry relative="1" as="geometry" />
        </mxCell>
        <mxCell id="13" parent="1" source="21" target="4" edge="1">
          <mxGeometry relative="1" as="geometry" />
        </mxCell>
        <mxCell id="14" parent="1" source="4" target="5" edge="1">
          <mxGeometry relative="1" as="geometry" />
        </mxCell>
        <mxCell id="15" style="exitX=0.25;exitY=1;exitDx=0;exitDy=0;" parent="1" source="Hsx1vwkpcnEWikiGo4f7-22" target="6" edge="1">
          <mxGeometry relative="1" as="geometry">
            <mxPoint x="270" y="753" as="sourcePoint" />
            <Array as="points">
              <mxPoint x="139" y="490" />
            </Array>
          </mxGeometry>
        </mxCell>
        <mxCell id="16" parent="1" source="6" target="7" edge="1">
          <mxGeometry relative="1" as="geometry" />
        </mxCell>
        <mxCell id="17" parent="1" source="7" target="8" edge="1">
          <mxGeometry relative="1" as="geometry" />
        </mxCell>
        <mxCell id="18" parent="1" source="8" target="9" edge="1">
          <mxGeometry relative="1" as="geometry" />
        </mxCell>
        <mxCell id="19" parent="1" source="9" target="10" edge="1">
          <mxGeometry relative="1" as="geometry" />
        </mxCell>
        <mxCell id="20" parent="1" source="10" target="11" edge="1">
          <mxGeometry relative="1" as="geometry" />
        </mxCell>
        <mxCell id="Hsx1vwkpcnEWikiGo4f7-22" value="" style="rounded=0;whiteSpace=wrap;html=1;strokeColor=default;fillColor=none;dashed=1;" vertex="1" parent="1">
          <mxGeometry x="16" y="306" width="493" height="101" as="geometry" />
        </mxCell>
        <mxCell id="Hsx1vwkpcnEWikiGo4f7-23" value="" style="rounded=0;whiteSpace=wrap;html=1;strokeColor=default;fillColor=none;dashed=1;" vertex="1" parent="1">
          <mxGeometry x="145" y="544" width="493" height="101" as="geometry" />
        </mxCell>
        <mxCell id="K8R9P8_hnZT4OjKG6-wg-22" value="" style="rounded=0;whiteSpace=wrap;html=1;strokeColor=default;fillColor=none;dashed=1;" vertex="1" parent="1">
          <mxGeometry x="658" y="544" width="493" height="101" as="geometry" />
        </mxCell>
      </root>
    </mxGraphModel>
  </diagram>
  <diagram id="9-4_iKrm_ryxnBcnJHoZ" name="bpmn_to-do">
    <mxGraphModel dx="1235" dy="769" grid="0" gridSize="10" guides="1" tooltips="1" connect="1" arrows="1" fold="1" page="1" pageScale="1" pageWidth="1169" pageHeight="827" math="0" shadow="0">
      <root>
        <mxCell id="0" />
        <mxCell id="1" parent="0" />
        <mxCell id="wGawNS0jKoOn1_J2BYPH-1" value="Cross-Functional Flowchart" style="shape=table;childLayout=tableLayout;startSize=40;collapsible=0;recursiveResize=0;expand=0;fontSize=16;fontStyle=1" vertex="1" parent="1">
          <mxGeometry x="21" y="20" width="1066" height="740" as="geometry" />
        </mxCell>
        <mxCell id="wGawNS0jKoOn1_J2BYPH-2" value="Actor 1" style="shape=tableRow;horizontal=0;swimlaneHead=0;swimlaneBody=0;top=0;left=0;strokeColor=inherit;bottom=0;right=0;dropTarget=0;fontStyle=1;fillColor=none;points=[[0,0.5],[1,0.5]];portConstraint=eastwest;startSize=40;collapsible=0;recursiveResize=0;expand=0;fontSize=16;" vertex="1" parent="wGawNS0jKoOn1_J2BYPH-1">
          <mxGeometry y="40" width="1066" height="233" as="geometry" />
        </mxCell>
        <mxCell id="wGawNS0jKoOn1_J2BYPH-3" value="Coltivazione e Raccolta" style="swimlane;swimlaneHead=0;swimlaneBody=0;fontStyle=1;strokeColor=inherit;connectable=0;fillColor=none;startSize=40;collapsible=0;recursiveResize=0;expand=0;fontSize=16;" vertex="1" parent="wGawNS0jKoOn1_J2BYPH-2">
          <mxGeometry x="40" width="341" height="233" as="geometry">
            <mxRectangle width="341" height="233" as="alternateBounds" />
          </mxGeometry>
        </mxCell>
        <mxCell id="wGawNS0jKoOn1_J2BYPH-4" value="Trasporto dai Campi al Trasformatore" style="swimlane;swimlaneHead=0;swimlaneBody=0;fontStyle=1;strokeColor=inherit;connectable=0;fillColor=none;startSize=40;collapsible=0;recursiveResize=0;expand=0;fontSize=16;" vertex="1" parent="wGawNS0jKoOn1_J2BYPH-2">
          <mxGeometry x="381" width="344" height="233" as="geometry">
            <mxRectangle width="344" height="233" as="alternateBounds" />
          </mxGeometry>
        </mxCell>
        <mxCell id="wGawNS0jKoOn1_J2BYPH-5" value="Trasformazione Alimentare" style="swimlane;swimlaneHead=0;swimlaneBody=0;fontStyle=1;strokeColor=inherit;connectable=0;fillColor=none;startSize=40;collapsible=0;recursiveResize=0;expand=0;fontSize=16;" vertex="1" parent="wGawNS0jKoOn1_J2BYPH-2">
          <mxGeometry x="725" width="341" height="233" as="geometry">
            <mxRectangle width="341" height="233" as="alternateBounds" />
          </mxGeometry>
        </mxCell>
        <mxCell id="wGawNS0jKoOn1_J2BYPH-6" value="Actor 2" style="shape=tableRow;horizontal=0;swimlaneHead=0;swimlaneBody=0;top=0;left=0;strokeColor=inherit;bottom=0;right=0;dropTarget=0;fontStyle=1;fillColor=none;points=[[0,0.5],[1,0.5]];portConstraint=eastwest;startSize=40;collapsible=0;recursiveResize=0;expand=0;fontSize=16;" vertex="1" parent="wGawNS0jKoOn1_J2BYPH-1">
          <mxGeometry y="273" width="1066" height="234" as="geometry" />
        </mxCell>
        <mxCell id="wGawNS0jKoOn1_J2BYPH-7" value="" style="swimlane;swimlaneHead=0;swimlaneBody=0;fontStyle=1;connectable=0;strokeColor=inherit;fillColor=none;startSize=0;collapsible=0;recursiveResize=0;expand=0;fontSize=16;" vertex="1" parent="wGawNS0jKoOn1_J2BYPH-6">
          <mxGeometry x="40" width="341" height="234" as="geometry">
            <mxRectangle width="341" height="234" as="alternateBounds" />
          </mxGeometry>
        </mxCell>
        <mxCell id="wGawNS0jKoOn1_J2BYPH-8" value="" style="swimlane;swimlaneHead=0;swimlaneBody=0;fontStyle=1;connectable=0;strokeColor=inherit;fillColor=none;startSize=0;collapsible=0;recursiveResize=0;expand=0;fontSize=16;" vertex="1" parent="wGawNS0jKoOn1_J2BYPH-6">
          <mxGeometry x="381" width="344" height="234" as="geometry">
            <mxRectangle width="344" height="234" as="alternateBounds" />
          </mxGeometry>
        </mxCell>
        <mxCell id="wGawNS0jKoOn1_J2BYPH-9" value="" style="swimlane;swimlaneHead=0;swimlaneBody=0;fontStyle=1;connectable=0;strokeColor=inherit;fillColor=none;startSize=0;collapsible=0;recursiveResize=0;expand=0;fontSize=16;" vertex="1" parent="wGawNS0jKoOn1_J2BYPH-6">
          <mxGeometry x="725" width="341" height="234" as="geometry">
            <mxRectangle width="341" height="234" as="alternateBounds" />
          </mxGeometry>
        </mxCell>
        <mxCell id="wGawNS0jKoOn1_J2BYPH-10" value="Actor 3" style="shape=tableRow;horizontal=0;swimlaneHead=0;swimlaneBody=0;top=0;left=0;strokeColor=inherit;bottom=0;right=0;dropTarget=0;fontStyle=1;fillColor=none;points=[[0,0.5],[1,0.5]];portConstraint=eastwest;startSize=40;collapsible=0;recursiveResize=0;expand=0;fontSize=16;" vertex="1" parent="wGawNS0jKoOn1_J2BYPH-1">
          <mxGeometry y="507" width="1066" height="233" as="geometry" />
        </mxCell>
        <mxCell id="wGawNS0jKoOn1_J2BYPH-11" value="" style="swimlane;swimlaneHead=0;swimlaneBody=0;fontStyle=1;connectable=0;strokeColor=inherit;fillColor=none;startSize=0;collapsible=0;recursiveResize=0;expand=0;fontSize=16;" vertex="1" parent="wGawNS0jKoOn1_J2BYPH-10">
          <mxGeometry x="40" width="341" height="233" as="geometry">
            <mxRectangle width="341" height="233" as="alternateBounds" />
          </mxGeometry>
        </mxCell>
        <mxCell id="wGawNS0jKoOn1_J2BYPH-12" value="" style="swimlane;swimlaneHead=0;swimlaneBody=0;fontStyle=1;connectable=0;strokeColor=inherit;fillColor=none;startSize=0;collapsible=0;recursiveResize=0;expand=0;fontSize=16;" vertex="1" parent="wGawNS0jKoOn1_J2BYPH-10">
          <mxGeometry x="381" width="344" height="233" as="geometry">
            <mxRectangle width="344" height="233" as="alternateBounds" />
          </mxGeometry>
        </mxCell>
        <mxCell id="wGawNS0jKoOn1_J2BYPH-13" value="" style="swimlane;swimlaneHead=0;swimlaneBody=0;fontStyle=1;connectable=0;strokeColor=inherit;fillColor=none;startSize=0;collapsible=0;recursiveResize=0;expand=0;fontSize=16;" vertex="1" parent="wGawNS0jKoOn1_J2BYPH-10">
          <mxGeometry x="725" width="341" height="233" as="geometry">
            <mxRectangle width="341" height="233" as="alternateBounds" />
          </mxGeometry>
        </mxCell>
      </root>
    </mxGraphModel>
  </diagram>
</mxfile>
